<svg fill="#BF0DB3" viewBox="-81.92 -81.92 675.84 675.84" xmlns="http://www.w3.org/2000/svg"><g id="SVGRepo_bgCarrier" stroke-width="0"><rect x="-81.92" y="-81.92" width="675.84" height="675.84" rx="94.6176" fill="#ffebfd" strokewidth="0"></rect></g><g id="SVGRepo_tracerCarrier" stroke-linecap="round" stroke-linejoin="round"></g><g id="SVGRepo_iconCarrier"> <g id="School_bus"> <path d="M321.4221,361.1694c1.7774,57.816,85.7163,57.83,87.5.0011C407.1469,303.3556,323.208,303.3406,321.4221,361.1694Z"></path> <path d="M85.1743,361.1694c1.7773,57.816,85.7162,57.83,87.5.0011C170.8991,303.3545,86.96,303.3406,85.1743,361.1694Z"></path> <path d="M465.8356,159.8756c3.042-27.3491-15.2954-52.3632-43.75-52.4124h-271.25a43.6541,43.6541,0,0,0-43.75,43.75v105h-.0876L61.7612,275.55a26.2963,26.2963,0,0,0-15.9256,24.2377v48.3a13.0922,13.0922,0,0,0,13.125,13.125c3.3838-92.8641,136.5842-92.8213,140,0h96.25c3.3838-92.8641,136.5842-92.8213,140,0h17.5a13.1065,13.1065,0,0,0,13.125-13.125C465.8441,348.0925,465.8292,159.89,465.8356,159.8756Zm-275.625,96.3376h-56.875v-96.25h56.875Zm83.125,0h-56.875v-96.25h56.875Zm83.125,0h-56.875v-96.25h56.875Zm83.125,0h-56.875v-96.25h56.875Z"></path> </g> </g></svg>